<?xml version="1.0" encoding="utf-8"?>
<!-- Generator: Adobe Illustrator 23.0.1, SVG Export Plug-In . SVG Version: 6.00 Build 0)  -->
<svg version="1.1" id="Layer_1" xmlns="http://www.w3.org/2000/svg" xmlns:xlink="http://www.w3.org/1999/xlink" x="0px" y="0px"
	 viewBox="0 0 100 90" style="enable-background:new 0 0 100 90;" xml:space="preserve">
<style type="text/css">
	.st0{fill:#FFFFFF;}
</style>
<path class="st0" d="M26.7,31.4l12.9-12.9c-0.2-0.4-0.5-0.7-0.7-1.1L25.6,30.6L26.7,31.4z"/>
<path class="st0" d="M24.5,29.8L38,16.3c-0.3-0.3-0.5-0.6-0.8-0.9L23.5,29L24.5,29.8z"/>
<path class="st0" d="M22.4,24.3l11.7-11.7c-0.3-0.2-0.7-0.5-1-0.7L22.4,22.5L22.4,24.3L22.4,24.3z"/>
<path class="st0" d="M22.4,20.5l9.4-9.4c-0.4-0.2-0.8-0.4-1.2-0.6l-8.2,8.2V20.5z"/>
<path class="st0" d="M22.4,16.7l6.8-6.8c-0.4-0.2-0.9-0.3-1.3-0.5l-5.5,5.5C22.4,14.9,22.4,16.7,22.4,16.7z"/>
<path class="st0" d="M22.4,12.9L26.4,9c-0.5-0.1-1-0.2-1.5-0.3l-2.4,2.4V12.9z"/>
<path class="st0" d="M22.4,28l13.7-13.7c-0.3-0.3-0.6-0.6-0.9-0.8L22.4,26.3V28z"/>
<path class="st0" d="M23.1,8.5c-0.2,0-0.4,0-0.6,0v0.6L23.1,8.5z"/>
<path class="st0" d="M28.9,33l12-12c-0.2-0.4-0.4-0.8-0.6-1.2L27.8,32.2L28.9,33z"/>
<path class="st0" d="M33.2,36.2l9.3-9.3c-0.1-0.5-0.1-1-0.2-1.5L32.2,35.4L33.2,36.2z"/>
<path class="st0" d="M31,34.6l10.8-10.8c-0.1-0.5-0.3-0.9-0.4-1.3L30,33.8L31,34.6z"/>
<path class="st0" d="M37.6,39.3l4.3-4.3c0.2-0.7,0.4-1.5,0.5-2.3l-5.8,5.8L37.6,39.3z"/>
<path class="st0" d="M35.4,37.7l7.2-7.2c0-0.4,0-0.7,0-1.1c0-0.2,0-0.5,0-0.7L34.4,37L35.4,37.7z"/>
<path class="st0" d="M39.4,40.7c0.5-0.8,0.9-1.6,1.3-2.4l-1.9,1.9L39.4,40.7z"/>
<rect x="60.9" y="24.3" class="st0" width="5.4" height="17.7"/>
<rect x="69.3" y="25.8" class="st0" width="5.4" height="16.3"/>
<rect x="77.8" y="28.7" class="st0" width="5.4" height="13.3"/>
<rect x="86.2" y="21.3" class="st0" width="5.4" height="20.7"/>
<rect x="94.6" y="21.3" class="st0" width="5.4" height="20.7"/>
<polygon class="st0" points="99.7,54.2 71.3,68.2 60.9,61.9 42.2,70.4 11.9,73.1 0,81.6 24,81.6 49,81.6 74.6,81.6 83.3,81.6 
	99.6,81.6 "/>
<path class="st0" d="M21.7,50.3c-11.5,0-20.9-9.4-20.9-20.9c0-11.3,9-20.5,20.2-20.9v20.7h0L38.4,42c0,0,0,0,0,0
	C34.6,47,28.5,50.3,21.7,50.3z"/>
</svg>
