<?xml version="1.0" encoding="utf-8"?>
<!-- Generator: Adobe Illustrator 23.0.1, SVG Export Plug-In . SVG Version: 6.00 Build 0)  -->
<svg version="1.1" id="Layer_1" xmlns="http://www.w3.org/2000/svg" xmlns:xlink="http://www.w3.org/1999/xlink" x="0px" y="0px"
	 viewBox="0 0 100 90" style="enable-background:new 0 0 100 90;" xml:space="preserve">
<style type="text/css">
	.st0{fill:#FFFFFF;}
</style>
<path class="st0" d="M90,45v-5h-6.7c-0.3-0.2-0.5-0.4-0.8-0.5V35H90v-5h-7.5v-5H90v-5h-7.5v-5c0-4.1-3.4-7.5-7.5-7.5h-5V0h-5v7.5h-5
	V0h-5v7.5h-5V0h-5v7.5h-5V0h-5v7.5h-5V0h-5v7.5h-5c-4.1,0-7.5,3.4-7.5,7.5v5H5v5h7.5v5H5v5h7.5v5H5v5h7.5v5H5v5h7.5v5H5v5h7.5v5
	c0,4.1,3.4,7.5,7.5,7.5h5V85h5v-7.5h5V85h5v-7.5h4.5c0.2,0.3,0.3,0.5,0.5,0.8V85h5v-1.3c4.8,3.9,10.9,6.3,17.5,6.3
	C82.7,90,95,77.7,95,62.5c0-6.6-2.4-12.7-6.3-17.5H90z M40,62.5c0,3.5,0.7,6.9,1.9,10H40h-5h-5h-5h-5c-1.4,0-2.5-1.1-2.5-2.5v-5v-5
	v-5v-5v-5v-5v-5v-5v-5v-5v-5c0-1.4,1.1-2.5,2.5-2.5h5h5h5h5h5h5h5h5h5h5h5c1.4,0,2.5,1.1,2.5,2.5v5v5v5v5v1.9
	c-3.1-1.2-6.5-1.9-10-1.9C52.3,35,40,47.3,40,62.5z M90,62.5C90,74.9,79.9,85,67.5,85S45,74.9,45,62.5S55.1,40,67.5,40
	S90,50.1,90,62.5z"/>
<path class="st0" d="M67.5,67.3L67.5,67.3c-1.3,0-2.4-1.1-2.4-2.4V50c0-1.3,1.1-2.4,2.4-2.4h0c1.3,0,2.4,1.1,2.4,2.4v14.9
	C69.8,66.2,68.8,67.3,67.5,67.3z"/>
<path class="st0" d="M65.1,64.9L65.1,64.9c0-1.3,1.1-2.4,2.4-2.4h14.9c1.3,0,2.4,1.1,2.4,2.4l0,0c0,1.3-1.1,2.4-2.4,2.4H67.5
	C66.1,67.3,65.1,66.2,65.1,64.9z"/>
</svg>
