<?xml version="1.0" encoding="utf-8"?>
<!-- Generator: Adobe Illustrator 23.0.1, SVG Export Plug-In . SVG Version: 6.00 Build 0)  -->
<svg version="1.1" id="Layer_1" xmlns="http://www.w3.org/2000/svg" xmlns:xlink="http://www.w3.org/1999/xlink" x="0px" y="0px"
	 viewBox="0 0 100 90" style="enable-background:new 0 0 100 90;" xml:space="preserve">
<style type="text/css">
	.st0{fill:#FFFFFF;stroke:#FFFFFF;stroke-width:2.9517;stroke-miterlimit:10;}
	.st1{fill:#FFFFFF;}
</style>
<path class="st0" d="M92.1,85.3H8c-3.5,0-6.4-2.9-6.4-6.4V14c0-3.5,2.9-6.4,6.4-6.4h84.1c3.5,0,6.4,2.9,6.4,6.4v65
	C98.5,82.4,95.6,85.3,92.1,85.3z"/>
<path class="st1" d="M17.6,20.3H9.7c-1.3,0-2.4-1.1-2.4-2.4v0c0-1.3,1.1-2.4,2.4-2.4h7.9c1.3,0,2.4,1.1,2.4,2.4v0
	C20,19.2,18.9,20.3,17.6,20.3z"/>
<path class="st1" d="M17.6,27.6H9.7c-1.3,0-2.4-1.1-2.4-2.4v0c0-1.3,1.1-2.4,2.4-2.4h7.9c1.3,0,2.4,1.1,2.4,2.4v0
	C20,26.5,18.9,27.6,17.6,27.6z"/>
<path class="st1" d="M17.6,35H9.7c-1.3,0-2.4-1.1-2.4-2.4v0c0-1.3,1.1-2.4,2.4-2.4h7.9c1.3,0,2.4,1.1,2.4,2.4v0
	C20,33.9,18.9,35,17.6,35z"/>
<path class="st1" d="M17.6,42.4H9.7c-1.3,0-2.4-1.1-2.4-2.4v0c0-1.3,1.1-2.4,2.4-2.4h7.9c1.3,0,2.4,1.1,2.4,2.4v0
	C20,41.3,18.9,42.4,17.6,42.4z"/>
<path class="st1" d="M49.7,20.3H26.3c-1.3,0-2.4-1.1-2.4-2.4v0c0-1.3,1.1-2.4,2.4-2.4h23.4c1.3,0,2.4,1.1,2.4,2.4v0
	C52.1,19.2,51,20.3,49.7,20.3z"/>
<path class="st1" d="M49.7,27.6H26.3c-1.3,0-2.4-1.1-2.4-2.4v0c0-1.3,1.1-2.4,2.4-2.4h23.4c1.3,0,2.4,1.1,2.4,2.4v0
	C52.1,26.5,51,27.6,49.7,27.6z"/>
<path class="st1" d="M49.7,35H26.3c-1.3,0-2.4-1.1-2.4-2.4v0c0-1.3,1.1-2.4,2.4-2.4h23.4c1.3,0,2.4,1.1,2.4,2.4v0
	C52.1,33.9,51,35,49.7,35z"/>
<path class="st1" d="M49.7,42.4H26.3c-1.3,0-2.4-1.1-2.4-2.4v0c0-1.3,1.1-2.4,2.4-2.4h23.4c1.3,0,2.4,1.1,2.4,2.4v0
	C52.1,41.3,51,42.4,49.7,42.4z"/>
<path class="st1" d="M67.4,58.6h-6c-1.1,0-1.9-0.9-1.9-1.9v-0.1c0-1.1,0.9-1.9,1.9-1.9h6c1.1,0,1.9,0.9,1.9,1.9v0.1
	C69.3,57.7,68.4,58.6,67.4,58.6z"/>
<path class="st1" d="M67.4,64.7h-6c-1.1,0-1.9-0.9-1.9-1.9v-0.1c0-1.1,0.9-1.9,1.9-1.9h6c1.1,0,1.9,0.9,1.9,1.9v0.1
	C69.3,63.8,68.4,64.7,67.4,64.7z"/>
<path class="st1" d="M67.4,70.7h-6c-1.1,0-1.9-0.9-1.9-1.9v-0.1c0-1.1,0.9-1.9,1.9-1.9h6c1.1,0,1.9,0.9,1.9,1.9v0.1
	C69.3,69.9,68.4,70.7,67.4,70.7z"/>
<path class="st1" d="M67.4,76.8h-6c-1.1,0-1.9-0.9-1.9-1.9v-0.1c0-1.1,0.9-1.9,1.9-1.9h6c1.1,0,1.9,0.9,1.9,1.9v0.1
	C69.3,75.9,68.4,76.8,67.4,76.8z"/>
<path class="st1" d="M92.4,58.6H74.3c-1.1,0-1.9-0.9-1.9-1.9v-0.1c0-1.1,0.9-1.9,1.9-1.9h18.1c1.1,0,1.9,0.9,1.9,1.9v0.1
	C94.3,57.7,93.5,58.6,92.4,58.6z"/>
<path class="st1" d="M92.4,64.7H74.3c-1.1,0-1.9-0.9-1.9-1.9v-0.1c0-1.1,0.9-1.9,1.9-1.9h18.1c1.1,0,1.9,0.9,1.9,1.9v0.1
	C94.3,63.8,93.5,64.7,92.4,64.7z"/>
<path class="st1" d="M92.4,70.7H74.3c-1.1,0-1.9-0.9-1.9-1.9v-0.1c0-1.1,0.9-1.9,1.9-1.9h18.1c1.1,0,1.9,0.9,1.9,1.9v0.1
	C94.3,69.9,93.5,70.7,92.4,70.7z"/>
<path class="st1" d="M92.4,76.8H74.3c-1.1,0-1.9-0.9-1.9-1.9v-0.1c0-1.1,0.9-1.9,1.9-1.9h18.1c1.1,0,1.9,0.9,1.9,1.9v0.1
	C94.3,75.9,93.5,76.8,92.4,76.8z"/>
<path class="st1" d="M8.9,77.7L8.9,77.7c-0.9,0-1.5-0.7-1.5-1.5V55c0-0.9,0.7-1.5,1.5-1.5h0c0.9,0,1.5,0.7,1.5,1.5v21.1
	C10.4,77,9.7,77.7,8.9,77.7z"/>
<path class="st1" d="M44.1,77.7L44.1,77.7c-0.9,0-1.5-0.7-1.5-1.5V55c0-0.9,0.7-1.5,1.5-1.5h0c0.9,0,1.5,0.7,1.5,1.5v21.1
	C45.7,77,45,77.7,44.1,77.7z"/>
<path class="st1" d="M15.1,77.7h-0.7c-0.7,0-1.2-0.5-1.2-1.2v-12c0-0.7,0.5-1.2,1.2-1.2h0.7c0.7,0,1.2,0.5,1.2,1.2v12
	C16.3,77.2,15.8,77.7,15.1,77.7z"/>
<path class="st1" d="M38.6,77.7h-0.7c-0.7,0-1.2-0.5-1.2-1.2v-12c0-0.7,0.5-1.2,1.2-1.2h0.7c0.7,0,1.2,0.5,1.2,1.2v12
	C39.8,77.2,39.3,77.7,38.6,77.7z"/>
<path class="st1" d="M50.4,77.7h-0.7c-0.7,0-1.2-0.5-1.2-1.2v-12c0-0.7,0.5-1.2,1.2-1.2h0.7c0.7,0,1.2,0.5,1.2,1.2v12
	C51.5,77.2,51,77.7,50.4,77.7z"/>
<path class="st1" d="M20.8,77.7h-0.3c-0.8,0-1.4-0.6-1.4-1.4V59c0-0.8,0.6-1.4,1.4-1.4h0.3c0.8,0,1.4,0.6,1.4,1.4v17.3
	C22.2,77.1,21.5,77.7,20.8,77.7z"/>
<path class="st1" d="M26.6,77.7h-0.3c-0.8,0-1.4-0.6-1.4-1.4V59c0-0.8,0.6-1.4,1.4-1.4h0.3c0.8,0,1.4,0.6,1.4,1.4v17.3
	C28.1,77.1,27.4,77.7,26.6,77.7z"/>
<path class="st1" d="M32.5,77.7h-0.3c-0.8,0-1.4-0.6-1.4-1.4V59c0-0.8,0.6-1.4,1.4-1.4h0.3c0.8,0,1.4,0.6,1.4,1.4v17.3
	C33.9,77.1,33.3,77.7,32.5,77.7z"/>
<circle class="st1" cx="77.7" cy="28.8" r="15.4"/>
<path d="M77.6,30.3L77.6,30.3c-0.6,0.6-1.6,0.6-2.2,0L62.7,17.6c-0.6-0.6-0.6-1.6,0-2.2l0,0c0.6-0.6,1.6-0.6,2.2,0l12.7,12.7
	C78.2,28.7,78.2,29.7,77.6,30.3z"/>
<path d="M76.1,30L76,29.7c-0.2-0.8,0.3-1.5,1-1.7l14.3-3.8c0.8-0.2,1.5,0.3,1.7,1l0.1,0.3c0.2,0.8-0.3,1.5-1,1.7L77.8,31
	C77.1,31.2,76.3,30.8,76.1,30z"/>
<path d="M71.4,44.1L71.1,44c-0.7-0.3-1-1.2-0.7-1.9l6.1-13.4c0.3-0.7,1.2-1,1.9-0.7l0.2,0.1c0.7,0.3,1,1.2,0.7,1.9l-6.1,13.4
	C72.9,44.1,72.1,44.4,71.4,44.1z"/>
</svg>
